<svg xmlns="http://www.w3.org/2000/svg" width="13.078" height="13.768" viewBox="0 0 13.078 13.768">
  <g id="Home-icon" transform="translate(0 0)">
    <path id="Home-icon-2" data-name="Home-icon" d="M79.709,431.955v-2.11a.98.98,0,0,1,.974-.974h1.979a.976.976,0,0,1,.977.974v2.1a.847.847,0,0,0,.846.844h1.35a2.368,2.368,0,0,0,1.683-.689,2.344,2.344,0,0,0,.7-1.667v-6a1.7,1.7,0,0,0-.616-1.309l-4.586-3.641a2.142,2.142,0,0,0-2.725.048L75.8,423.133a1.69,1.69,0,0,0-.667,1.309v5.99a2.369,2.369,0,0,0,2.379,2.362h1.318a.843.843,0,0,0,.852-.839Zm0,0" transform="translate(-75.136 -419.026)" fill="#8a9cb7"/>
  </g>
</svg>
